<svg xmlns="http://www.w3.org/2000/svg" xmlns:xlink="http://www.w3.org/1999/xlink" viewBox="0 0 66 66"><defs><clipPath id="b"><rect width="66" height="66"/></clipPath></defs><g id="a" clip-path="url(#b)"><g transform="translate(-1 -3.729)"><path d="M29.681-244.756a2.265,2.265,0,0,1,.942.454.952.952,0,0,1,.279.721,2.637,2.637,0,0,1-.08.561,11.207,11.207,0,0,0-.318,2.4,6.458,6.458,0,0,0,.424,2.51,2.186,2.186,0,0,0,.305.574.451.451,0,0,0,.358.174q.265,0,.69-.481a8.967,8.967,0,0,0,1.459-2.35,8.269,8.269,0,0,0,.584-2.43,2.147,2.147,0,0,1,.265-1.041.565.565,0,0,1,.345-.134,6.679,6.679,0,0,1,.69-.027,5.689,5.689,0,0,1,.995.133.608.608,0,0,1,.385.267,1.313,1.313,0,0,1,.106.614l-.027,1.255q0,.4-.027,1.175-.08,2.4-.133,3.578a7.62,7.62,0,0,1-.557,2.35,1.053,1.053,0,0,1-.292.227,1.154,1.154,0,0,1-.424.174q-.053,0-.225-.174a1.688,1.688,0,0,1-.252-.307q-.186-.427-.424-1.148l-.212-.507-.053-.16-.08.08-.424.267a2.786,2.786,0,0,1-.69.427,2.738,2.738,0,0,1-1.459.374,3.725,3.725,0,0,1-2.016-.6A4.288,4.288,0,0,1,28.3-237.44a7.438,7.438,0,0,1-.9-3.712,15.854,15.854,0,0,1,.292-2.7,1,1,0,0,1,.5-.694,1.521,1.521,0,0,1,.928-.294A2.1,2.1,0,0,1,29.681-244.756Zm19.309,8.2q-.053-.053-.584-.694-.875,2.056-1.247,2.75a1.763,1.763,0,0,1-1.565,1.2,2.693,2.693,0,0,1-1.087-.294,4.5,4.5,0,0,1-1.7-1.442,7.347,7.347,0,0,1-1.008-2.19q-.53-1.816-.955-3.792a2.266,2.266,0,0,1-.053-.374,1.136,1.136,0,0,1,.637-1.015,1.74,1.74,0,0,1,.8-.24,1.74,1.74,0,0,1,.8.24,2.764,2.764,0,0,1,1.048.868,2.434,2.434,0,0,1,.358,1.3,7.024,7.024,0,0,0,.371,1.669,5.348,5.348,0,0,0,.424,1.135q.08-.107.292-.347a2.145,2.145,0,0,0,.318-.454l.477-.988a15.154,15.154,0,0,1,1.061-1.949,2.158,2.158,0,0,1,.756-.721,1.876,1.876,0,0,1,.915-.24,2.224,2.224,0,0,1,1.591.748,2.6,2.6,0,0,1,.4,1.015q.08.374.186.988a11.029,11.029,0,0,0,.451,1.949q.159.454.53.454a.742.742,0,0,0,.61-.427q.637-1.122,1.379-2.724a17.256,17.256,0,0,1,.9-1.816,14.156,14.156,0,0,1,1.459-1.949,2.19,2.19,0,0,1,.716-.547,1.592,1.592,0,0,1,.822-.2q.265.027.424.481a3.053,3.053,0,0,1,.159,1.015,3.619,3.619,0,0,1-.053.587,6.274,6.274,0,0,1-.345,1.148q-.212.507-.61,1.389-.477,1.041-.61,1.362l-.345.534q-.981,1.522-1.459,2.136a8.571,8.571,0,0,1-1.751,1.6,1.4,1.4,0,0,1-.849.294,1.809,1.809,0,0,1-.716-.147,4.705,4.705,0,0,1-.663-.347q-.318-.2-.477-.307a6.6,6.6,0,0,1-1.379-1.2A3.747,3.747,0,0,0,48.99-236.559Zm17.32.4a7.245,7.245,0,0,0,.875-3.712q0-.668-.106-2.029v-2.75q0-.854.61-.854a1.194,1.194,0,0,1,.424.08q1.353.587,1.538,1.255a14.785,14.785,0,0,1,.663,4.3,11.968,11.968,0,0,1-.849,4.459,3.331,3.331,0,0,1-1.392,1.682,3.993,3.993,0,0,1-2.082.561,4.4,4.4,0,0,1-2.467-.694,4.6,4.6,0,0,1-2.148-3.365q-.133-1.095-.239-1.682-.265-1.575-.345-2.457a1.186,1.186,0,0,1,.424-1,1.613,1.613,0,0,1,1.087-.387,1.491,1.491,0,0,1,.477.08,2.4,2.4,0,0,1,1.353.988,3.3,3.3,0,0,1,.345,1.736q-.053.855-.053,1.282a4.707,4.707,0,0,0,.61,2.51,1.544,1.544,0,0,0,.292.4q.186.187.239.16a.817.817,0,0,0,.411-.187A1.479,1.479,0,0,0,66.31-236.158Z" transform="translate(-14.866 276.517)" fill="#ef0c40"/><path d="M32,64.432a32.259,32.259,0,0,1-3.272-.166,31.851,31.851,0,0,1-3.177-.488c-1.031-.212-2.063-.48-3.067-.794s-1.982-.675-2.94-1.083-1.89-.86-2.8-1.357-1.788-1.036-2.638-1.614-1.675-1.2-2.464-1.855S10.094,55.722,9.373,55s-1.416-1.5-2.065-2.288-1.27-1.628-1.842-2.48-1.114-1.749-1.6-2.656-.946-1.861-1.348-2.816S1.748,42.8,1.439,41.8.861,39.747.65,38.709s-.377-2.127-.485-3.2a32.906,32.906,0,0,1,0-6.588c.108-1.072.271-2.148.485-3.2s.476-2.077.788-3.087.671-2,1.076-2.96.855-1.9,1.348-2.816,1.029-1.8,1.6-2.656,1.192-1.687,1.842-2.48,1.344-1.562,2.065-2.288,1.486-1.426,2.272-2.079S13.262,6.078,14.109,5.5s1.738-1.121,2.638-1.614,1.848-.952,2.8-1.357,1.947-.772,2.94-1.083S24.52.867,25.551.654A31.84,31.84,0,0,1,28.728.166a32.25,32.25,0,0,1,6.543,0,31.834,31.834,0,0,1,3.177.488c1.031.212,2.063.48,3.067.794s1.982.676,2.94,1.083,1.89.86,2.8,1.357S49.041,4.924,49.891,5.5s1.675,1.2,2.463,1.855,1.551,1.353,2.273,2.079,1.416,1.5,2.065,2.288,1.27,1.628,1.842,2.48,1.114,1.749,1.6,2.656.946,1.861,1.348,2.816.767,1.96,1.076,2.96.577,2.049.789,3.087.377,2.127.485,3.2a32.906,32.906,0,0,1,0,6.588c-.108,1.072-.271,2.148-.485,3.2s-.476,2.077-.789,3.087-.671,2-1.076,2.96-.855,1.9-1.348,2.816-1.029,1.8-1.6,2.656-1.191,1.687-1.842,2.48S55.349,54.269,54.627,55s-1.487,1.427-2.273,2.079-1.617,1.279-2.463,1.855-1.738,1.121-2.638,1.614-1.848.952-2.8,1.357-1.947.772-2.94,1.083-2.035.581-3.067.794a31.84,31.84,0,0,1-3.177.488A32.257,32.257,0,0,1,32,64.432ZM32,3.093a29.2,29.2,0,0,0-2.958.15,28.768,28.768,0,0,0-2.872.441c-.933.192-1.866.434-2.772.718s-1.791.61-2.658.979-1.709.778-2.529,1.226-1.616.936-2.385,1.459S14.312,9.151,13.6,9.743s-1.4,1.223-2.054,1.88-1.281,1.353-1.867,2.068-1.148,1.472-1.665,2.242-1.007,1.583-1.449,2.4-.855,1.682-1.218,2.546-.693,1.772-.973,2.676-.522,1.853-.713,2.791-.341,1.924-.438,2.892a29.748,29.748,0,0,0,0,5.956c.1.968.245,1.941.438,2.892s.431,1.877.713,2.791.607,1.8.973,2.676.773,1.721,1.218,2.546.93,1.627,1.449,2.4,1.078,1.525,1.665,2.242,1.215,1.411,1.867,2.068,1.343,1.289,2.054,1.88,1.462,1.156,2.227,1.677,1.572,1.014,2.385,1.459,1.671.861,2.529,1.226,1.76.7,2.658.979,1.84.525,2.772.718a28.839,28.839,0,0,0,2.872.441,29.142,29.142,0,0,0,5.916,0,28.833,28.833,0,0,0,2.872-.441c.932-.192,1.865-.433,2.772-.718s1.792-.611,2.658-.979,1.709-.778,2.529-1.226,1.616-.936,2.385-1.459,1.515-1.085,2.227-1.677,1.4-1.223,2.054-1.88,1.28-1.352,1.867-2.068S55.47,49.27,55.988,48.5s1.007-1.582,1.449-2.4.855-1.682,1.218-2.546.694-1.772.973-2.676.522-1.853.713-2.791.341-1.924.438-2.892a29.776,29.776,0,0,0,0-5.956c-.1-.968-.245-1.941-.438-2.892s-.431-1.877-.713-2.791-.607-1.8-.973-2.676-.773-1.72-1.218-2.546-.929-1.627-1.449-2.4-1.077-1.525-1.665-2.242-1.215-1.412-1.867-2.068-1.343-1.289-2.054-1.88S48.94,8.587,48.174,8.067,46.6,7.053,45.789,6.608s-1.67-.861-2.529-1.226S41.5,4.683,40.6,4.4s-1.84-.525-2.772-.718a28.762,28.762,0,0,0-2.872-.441A29.2,29.2,0,0,0,32,3.093Z" transform="translate(2 5)" fill="#ef0c40"/><path d="M32,64.432a32.259,32.259,0,0,1-3.272-.166,31.851,31.851,0,0,1-3.177-.488c-1.031-.212-2.063-.48-3.067-.794s-1.982-.675-2.94-1.083-1.89-.86-2.8-1.357-1.788-1.036-2.638-1.614-1.675-1.2-2.464-1.855S10.094,55.722,9.373,55s-1.416-1.5-2.065-2.288-1.27-1.628-1.842-2.48-1.114-1.749-1.6-2.656-.946-1.861-1.348-2.816S1.748,42.8,1.439,41.8.861,39.747.65,38.709s-.377-2.127-.485-3.2a32.906,32.906,0,0,1,0-6.588c.108-1.072.271-2.148.485-3.2s.476-2.077.788-3.087.671-2,1.076-2.96.855-1.9,1.348-2.816,1.029-1.8,1.6-2.656,1.192-1.687,1.842-2.48,1.344-1.562,2.065-2.288,1.486-1.426,2.272-2.079S13.262,6.078,14.109,5.5s1.738-1.121,2.638-1.614,1.848-.952,2.8-1.357,1.947-.772,2.94-1.083S24.52.867,25.551.654A31.84,31.84,0,0,1,28.728.166a32.25,32.25,0,0,1,6.543,0,31.834,31.834,0,0,1,3.177.488c1.031.212,2.063.48,3.067.794s1.982.676,2.94,1.083,1.89.86,2.8,1.357S49.041,4.924,49.891,5.5s1.675,1.2,2.463,1.855,1.551,1.353,2.273,2.079,1.416,1.5,2.065,2.288,1.27,1.628,1.842,2.48,1.114,1.749,1.6,2.656.946,1.861,1.348,2.816.767,1.96,1.076,2.96.577,2.049.789,3.087.377,2.127.485,3.2a32.906,32.906,0,0,1,0,6.588c-.108,1.072-.271,2.148-.485,3.2s-.476,2.077-.789,3.087-.671,2-1.076,2.96-.855,1.9-1.348,2.816-1.029,1.8-1.6,2.656-1.191,1.687-1.842,2.48S55.349,54.269,54.627,55s-1.487,1.427-2.273,2.079-1.617,1.279-2.463,1.855-1.738,1.121-2.638,1.614-1.848.952-2.8,1.357-1.947.772-2.94,1.083-2.035.581-3.067.794a31.84,31.84,0,0,1-3.177.488A32.257,32.257,0,0,1,32,64.432ZM32,3.093a29.2,29.2,0,0,0-2.958.15,28.768,28.768,0,0,0-2.872.441c-.933.192-1.866.434-2.772.718s-1.791.61-2.658.979-1.709.778-2.529,1.226-1.616.936-2.385,1.459S14.312,9.151,13.6,9.743s-1.4,1.223-2.054,1.88-1.281,1.353-1.867,2.068-1.148,1.472-1.665,2.242-1.007,1.583-1.449,2.4-.855,1.682-1.218,2.546-.693,1.772-.973,2.676-.522,1.853-.713,2.791-.341,1.924-.438,2.892a29.748,29.748,0,0,0,0,5.956c.1.968.245,1.941.438,2.892s.431,1.877.713,2.791.607,1.8.973,2.676.773,1.721,1.218,2.546.93,1.627,1.449,2.4,1.078,1.525,1.665,2.242,1.215,1.411,1.867,2.068,1.343,1.289,2.054,1.88,1.462,1.156,2.227,1.677,1.572,1.014,2.385,1.459,1.671.861,2.529,1.226,1.76.7,2.658.979,1.84.525,2.772.718a28.839,28.839,0,0,0,2.872.441,29.142,29.142,0,0,0,5.916,0,28.833,28.833,0,0,0,2.872-.441c.932-.192,1.865-.433,2.772-.718s1.792-.611,2.658-.979,1.709-.778,2.529-1.226,1.616-.936,2.385-1.459,1.515-1.085,2.227-1.677,1.4-1.223,2.054-1.88,1.28-1.352,1.867-2.068S55.47,49.27,55.988,48.5s1.007-1.582,1.449-2.4.855-1.682,1.218-2.546.694-1.772.973-2.676.522-1.853.713-2.791.341-1.924.438-2.892a29.776,29.776,0,0,0,0-5.956c-.1-.968-.245-1.941-.438-2.892s-.431-1.877-.713-2.791-.607-1.8-.973-2.676-.773-1.72-1.218-2.546-.929-1.627-1.449-2.4-1.077-1.525-1.665-2.242-1.215-1.412-1.867-2.068-1.343-1.289-2.054-1.88S48.94,8.587,48.174,8.067,46.6,7.053,45.789,6.608s-1.67-.861-2.529-1.226S41.5,4.683,40.6,4.4s-1.84-.525-2.772-.718a28.762,28.762,0,0,0-2.872-.441A29.2,29.2,0,0,0,32,3.093Z" transform="translate(2 5)" fill="#ef0c40"/></g></g></svg>