<svg xmlns="http://www.w3.org/2000/svg" viewBox="0 0 315 256"><defs><clipPath id="a"><path d="M0 0h315v256H0z"/></clipPath></defs><g clip-path="url(#a)"><path fill="red" d="M111.3 69a5.6 5.6 0 012.4 1.1 2.3 2.3 0 01.7 1.8 6.5 6.5 0 01-.2 1.4 27.4 27.4 0 00-.8 5.9 15.8 15.8 0 001 6.2 5.4 5.4 0 00.8 1.4 1.1 1.1 0 00.9.4q.6 0 1.7-1.2a22 22 0 003.6-5.8 20.3 20.3 0 001.4-6 5.3 5.3 0 01.7-2.5 1.4 1.4 0 01.9-.3 16.7 16.7 0 011.7-.1 14.2 14.2 0 012.4.3 1.5 1.5 0 011 .7 3.2 3.2 0 01.2 1.5v6l-.4 8.8a18.7 18.7 0 01-1.4 5.8 2.6 2.6 0 01-.7.5 2.9 2.9 0 01-1 .5q-.2 0-.6-.5a4.2 4.2 0 01-.7-.7l-1-2.8-.5-1.3-.2-.4-.2.2-1 .7a7 7 0 01-1.7 1 6.8 6.8 0 01-3.6 1 9.3 9.3 0 01-5-1.5 10.6 10.6 0 01-3.8-4 18.2 18.2 0 01-2.2-9.2 38.8 38.8 0 01.7-6.7 2.5 2.5 0 011.2-1.7 3.8 3.8 0 012.3-.7 5.3 5.3 0 011.4.2zm48 20.2l-1.5-1.7-3.1 6.8q-1.5 3-3.9 3a6.7 6.7 0 01-2.7-.8 11.1 11.1 0 01-4.2-3.6 18 18 0 01-2.5-5.4q-1.3-4.4-2.4-9.3a5.5 5.5 0 01-.1-1 2.8 2.8 0 011.6-2.4 4.3 4.3 0 012-.6 4.3 4.3 0 012 .6 6.8 6.8 0 012.5 2.1 6 6 0 01.9 3.2 17.2 17.2 0 001 4.1 13.1 13.1 0 001 2.8l.7-.8a5.3 5.3 0 00.8-1.2l1.2-2.4a37.3 37.3 0 012.6-4.8 5.3 5.3 0 011.9-1.8 4.7 4.7 0 012.2-.6 5.5 5.5 0 014 1.9 6.4 6.4 0 011 2.5l.4 2.4A27 27 0 00166 87q.4 1.1 1.3 1.1a1.8 1.8 0 001.5-1q1.6-2.8 3.4-6.7a42.4 42.4 0 012.2-4.5 34.9 34.9 0 013.7-4.8 5.4 5.4 0 011.7-1.3 4 4 0 012-.5q.7 0 1.1 1.1a7.5 7.5 0 01.4 2.5 8.9 8.9 0 01-.1 1.5 15.4 15.4 0 01-.9 2.8l-1.5 3.4-1.5 3.4-.8 1.3q-2.5 3.8-3.7 5.3a21.2 21.2 0 01-4.3 4 3.5 3.5 0 01-2.1.7 4.5 4.5 0 01-1.8-.4 11.7 11.7 0 01-1.6-.9l-1.2-.7a16.3 16.3 0 01-3.4-3 9.3 9.3 0 00-1-1.1zm42.9 1a17.8 17.8 0 002.1-9.2l-.2-5v-6.7q0-2.1 1.5-2.1a3 3 0 011 .2q3.4 1.4 3.9 3A36.2 36.2 0 01212 81a29.3 29.3 0 01-2 11 8.2 8.2 0 01-3.5 4.2 10 10 0 01-5.2 1.3 11 11 0 01-6.1-1.7 11.3 11.3 0 01-5.4-8.3l-.5-4.1q-.7-3.9-.9-6a3 3 0 011-2.5 4 4 0 012.8-1 3.7 3.7 0 011.1.2 6 6 0 013.4 2.5 8 8 0 01.8 4.2V84a11.5 11.5 0 001.4 6.2 3.8 3.8 0 00.8 1l.5.4a2 2 0 001-.5 3.7 3.7 0 00.9-1z"/><path d="M33.5 180.2a2.9 2.9 0 012.2.8 3 3 0 01.8 2.2V209a3 3 0 01-.8 2.2 2.9 2.9 0 01-2.2.8 2.9 2.9 0 01-2.1-.8 3 3 0 01-.8-2.2v-4.3l1.2.2a4.5 4.5 0 01-1 2.4 11.6 11.6 0 01-2.3 2.5 13.2 13.2 0 01-3.5 2 11.7 11.7 0 01-4.4.8 13.4 13.4 0 01-7.4-2 14.9 14.9 0 01-5.1-6 18 18 0 01-2-8.3 18.2 18.2 0 012-8.5 14.8 14.8 0 015.1-5.8 13.1 13.1 0 017.3-2 13.1 13.1 0 014.7.7A13.7 13.7 0 0129 183a11.1 11.1 0 012.5 2.8 5.3 5.3 0 011 2.8l-2 .1v-5.4a3 3 0 01.9-2.2 2.8 2.8 0 012.1-.8zm-12.1 27a8.6 8.6 0 004.9-1.5 9.7 9.7 0 003.3-3.9 12.6 12.6 0 001.2-5.5 12.5 12.5 0 00-1.2-5.6 9.7 9.7 0 00-3.3-3.9 8.6 8.6 0 00-5-1.4 8.6 8.6 0 00-4.8 1.4 9.6 9.6 0 00-3.4 4 12.5 12.5 0 00-1.2 5.5 12.6 12.6 0 001.2 5.5 9.7 9.7 0 003.3 4 8.6 8.6 0 005 1.3zM61 179.8a10.7 10.7 0 016.6 1.8 9.2 9.2 0 013.2 4.7 22 22 0 011 6.6v16a3 3 0 01-1 2.2 2.9 2.9 0 01-2 .8 2.9 2.9 0 01-2.2-.8 3 3 0 01-.8-2.2v-16a11.6 11.6 0 00-.6-3.8 5.6 5.6 0 00-2-2.7 7 7 0 00-4.2-1 8.6 8.6 0 00-4.3 1 7.8 7.8 0 00-2.9 2.7 7.2 7.2 0 00-1 3.9V209a3 3 0 01-.9 2.2 2.9 2.9 0 01-2 .8 2.9 2.9 0 01-2.2-.8 3 3 0 01-.9-2.2v-25.3a3 3 0 01.9-2.2 2.9 2.9 0 012.1-.9 2.9 2.9 0 012.1.9 3 3 0 01.9 2.2v3.3l-1 .6a8.6 8.6 0 011.4-2.6 14.4 14.4 0 012.5-2.5 12.4 12.4 0 013.4-1.9 11.2 11.2 0 014-.7zm24.7 29a3 3 0 01-.9 2.3 2.9 2.9 0 01-2.1.8 2.9 2.9 0 01-2.1-.8 3 3 0 01-.9-2.2v-25.6a3 3 0 01.9-2.1 2.9 2.9 0 012-1 2.9 2.9 0 012.2 1 3 3 0 01.9 2.1zm-3-32.4a4 4 0 01-2.6-.7 2.6 2.6 0 01-.8-2v-1a2.4 2.4 0 01.9-2.1 4.3 4.3 0 012.5-.6 4.1 4.1 0 012.6.6 2.5 2.5 0 01.7 2v1a2.5 2.5 0 01-.8 2.2 4.4 4.4 0 01-2.6.6zm26.8 3.6q4.4 0 6.8 2.2a10.7 10.7 0 013.2 5.9l-1-.3.4-1a12.3 12.3 0 012.4-3.1 13.4 13.4 0 013.8-2.7 10.9 10.9 0 014.7-1 10.2 10.2 0 016.4 1.8 9.2 9.2 0 013.1 4.7 22.7 22.7 0 011 6.6V209a3 3 0 01-.9 2.2 2.9 2.9 0 01-2.1.8 2.9 2.9 0 01-2.2-.8 3 3 0 01-.8-2.2v-15.8a12.2 12.2 0 00-.6-3.8 5.5 5.5 0 00-2-2.8 6.3 6.3 0 00-3.8-1 8.2 8.2 0 00-4.2 1 7.6 7.6 0 00-2.8 2.8 7.4 7.4 0 00-1 3.8V209a3 3 0 01-.9 2.2 2.9 2.9 0 01-2.1.8 2.9 2.9 0 01-2.2-.8 3 3 0 01-.8-2.2v-15.8a12.2 12.2 0 00-.6-3.9 5.4 5.4 0 00-1.9-2.7 6.3 6.3 0 00-3.8-1 8.2 8.2 0 00-4.1 1 7.2 7.2 0 00-2.8 2.7 7.6 7.6 0 00-1 3.9V209a3 3 0 01-.9 2.2 2.9 2.9 0 01-2 .8 2.9 2.9 0 01-2.2-.8 3 3 0 01-.9-2.2v-25.3a3 3 0 01.9-2.2 2.9 2.9 0 012.1-.9 2.9 2.9 0 012.1.9 3 3 0 01.9 2.2v3.5l-1.1.7a10.1 10.1 0 011.3-2.7 11.5 11.5 0 012.5-2.5 13.4 13.4 0 013.2-1.9 10.4 10.4 0 013.9-.7zm53.4 32.5a17.2 17.2 0 01-8.5-2 14.4 14.4 0 01-5.7-5.7 16.8 16.8 0 01-2-8.3 18 18 0 012.1-9 15 15 0 015.6-5.7 14.2 14.2 0 017.2-2 13.6 13.6 0 015.5 1.2 15 15 0 014.7 3.2 15.6 15.6 0 013.2 4.8 16 16 0 011.3 6.1 2.7 2.7 0 01-1 2 3 3 0 01-2 .7H150l-1.4-5H171l-1.1 1v-1.4a6.7 6.7 0 00-1.5-3.7 8.6 8.6 0 00-3-2.5 8.9 8.9 0 00-3.9-.8 10.7 10.7 0 00-3.4.5 7.5 7.5 0 00-3 1.9 9.2 9.2 0 00-2 3.3 14.6 14.6 0 00-.8 5 11.5 11.5 0 001.4 5.8 9.8 9.8 0 003.7 3.8 10.2 10.2 0 005.2 1.3 12.2 12.2 0 003.6-.4 8.9 8.9 0 002.4-1.1l1.6-1.3a3.7 3.7 0 011.8-.5 2.4 2.4 0 011.8.7 2.5 2.5 0 01.7 1.8 3 3 0 01-1.3 2.4 14.4 14.4 0 01-4.4 2.7 15.2 15.2 0 01-6 1.2zm18-5.5a3.2 3.2 0 01-.5-1.9 2.4 2.4 0 011.3-1.9 2.7 2.7 0 011.7-.4 2.9 2.9 0 011.8.9 13.3 13.3 0 003.7 3 10.7 10.7 0 005 1 12 12 0 002.5-.4 4.8 4.8 0 002.1-1.2 3.4 3.4 0 001-2.5 3.1 3.1 0 00-1-2.4 7.3 7.3 0 00-2.6-1.5l-3.3-1-3.8-1.2a14.6 14.6 0 01-3.5-1.7 8.3 8.3 0 01-2.6-2.7 8 8 0 01-1-4.1 7.6 7.6 0 011.6-4.9 10.6 10.6 0 014.1-3.1 13.4 13.4 0 015.6-1.2 16 16 0 013.6.5 15.2 15.2 0 013.7 1.4 10.5 10.5 0 013.1 2.5 3.4 3.4 0 01.7 1.8 2.2 2.2 0 01-1 2 2.4 2.4 0 01-1.7.5 2.6 2.6 0 01-1.7-.7 7.7 7.7 0 00-3-2.2 9.8 9.8 0 00-4-.8 9 9 0 00-2.3.3 4.5 4.5 0 00-2.1 1.2 3.3 3.3 0 00-.8 2.4 3 3 0 001 2.4 7.9 7.9 0 002.5 1.5 33.6 33.6 0 003.6 1l3.6 1.2a13.5 13.5 0 013.3 1.7 8.2 8.2 0 012.4 2.7 8.4 8.4 0 011 4.1 7.6 7.6 0 01-1.8 5 10.9 10.9 0 01-4.3 3.2 14.1 14.1 0 01-5.4 1 19.7 19.7 0 01-6.8-1.2 12.4 12.4 0 01-5.7-4.3zm46.2-27a10.2 10.2 0 016.4 1.8 9.3 9.3 0 013.2 4.7 22.1 22.1 0 011 6.6V209a3 3 0 01-1 2.2 2.9 2.9 0 01-2 .8 2.9 2.9 0 01-2.2-.8 3 3 0 01-.9-2.2v-15.8a12.2 12.2 0 00-.5-3.9 5.3 5.3 0 00-2-2.7 6.6 6.6 0 00-3.9-1 8.4 8.4 0 00-4.2 1 7.2 7.2 0 00-2.8 2.7 7.6 7.6 0 00-1 3.9V209a3 3 0 01-.8 2.2 2.9 2.9 0 01-2.1.8 2.9 2.9 0 01-2.2-.8 3 3 0 01-.8-2.2v-38.1a3 3 0 01.8-2.2 2.9 2.9 0 012.2-.8 2.9 2.9 0 012 .8 3 3 0 011 2.2v16.3l-1.1.6a9.7 9.7 0 011.4-2.7 12.1 12.1 0 012.4-2.5 12.7 12.7 0 013.3-1.8 10.6 10.6 0 013.8-.7zm48.7 16.2a16.6 16.6 0 01-2.1 8.5 15.5 15.5 0 01-5.7 5.7 15.7 15.7 0 01-8.1 2.1 15.7 15.7 0 01-8-2 15.5 15.5 0 01-5.8-5.8 16.6 16.6 0 01-2-8.5 16.7 16.7 0 012-8.5 15.7 15.7 0 015.8-5.8 15.6 15.6 0 018-2 15.5 15.5 0 018 2 15.8 15.8 0 015.8 5.8 16.7 16.7 0 012 8.5zm-6 0a11.8 11.8 0 00-1.3-5.7 10.1 10.1 0 00-3.6-3.8 9.3 9.3 0 00-5-1.4 9.2 9.2 0 00-5 1.4 10.3 10.3 0 00-3.6 3.8 11.6 11.6 0 00-1.3 5.7 11.5 11.5 0 001.3 5.6 10 10 0 003.6 3.9 9.3 9.3 0 005 1.3 9.5 9.5 0 005-1.3 9.8 9.8 0 003.6-3.9 11.7 11.7 0 001.3-5.6zm28.6-16.4a10.7 10.7 0 016.6 1.8 9.2 9.2 0 013.2 4.7 22 22 0 011 6.6v16a3 3 0 01-1 2.2 2.9 2.9 0 01-2 .8 2.9 2.9 0 01-2.2-.8 3 3 0 01-.8-2.2v-16a11.6 11.6 0 00-.6-3.8 5.6 5.6 0 00-2-2.7 7 7 0 00-4.2-1 8.6 8.6 0 00-4.3 1 7.8 7.8 0 00-2.9 2.7 7.2 7.2 0 00-1 3.9V209a3 3 0 01-.9 2.2 2.9 2.9 0 01-2.1.8 2.9 2.9 0 01-2.1-.8 3 3 0 01-.9-2.2v-25.3a3 3 0 01.9-2.2 2.9 2.9 0 012.1-.9 2.9 2.9 0 012.1.9 3 3 0 01.9 2.2v3.3l-1 .6a8.6 8.6 0 011.4-2.6 14.4 14.4 0 012.5-2.5 12.4 12.4 0 013.4-1.9 11.2 11.2 0 013.9-.7z"/><path fill="#777" d="M80.5 233.6a1.1 1.1 0 01-.8-.3 1.1 1.1 0 01-.3-.9 1.1 1.1 0 01.3-.8 1.1 1.1 0 01.8-.4h18.1a1.2 1.2 0 01.9.4 1.1 1.1 0 01.3.8 6.5 6.5 0 01-.4 2.3 13.8 13.8 0 01-5.5 6.6 1.2 1.2 0 01-1 .2 1.4 1.4 0 01-.8-.6 1.2 1.2 0 01-.2-.9 1.2 1.2 0 01.6-.8 10.4 10.4 0 004.3-5.4l-.1-.2zm6 3.6a1.4 1.4 0 01.3-1 1.3 1.3 0 011-.4 1.3 1.3 0 011 .4 1.2 1.2 0 01.3 1 21.6 21.6 0 01-1.5 8.3 9.9 9.9 0 01-4.4 4.6 1.3 1.3 0 01-1 0 1.3 1.3 0 01-.8-.6 1.1 1.1 0 01-.1-1 1.3 1.3 0 01.6-.7 7.8 7.8 0 003.4-3.7 19.2 19.2 0 001.1-7zm18.5-5.6h14.2a1.3 1.3 0 011 .4 1.3 1.3 0 01.3 1 1.3 1.3 0 01-.3.8 1.2 1.2 0 01-1 .4H105a1.2 1.2 0 01-1-.4 1.3 1.3 0 01-.3-.9 1.3 1.3 0 01.4-.9 1.3 1.3 0 01.9-.4zm-1.8 17.6a1.3 1.3 0 01-1-.3 1.3 1.3 0 01-.3-1 1.3 1.3 0 01.4-.9 1.2 1.2 0 01.9-.4H121a1.2 1.2 0 011 .4 1.3 1.3 0 01.3 1 1.3 1.3 0 01-.4.9 1.3 1.3 0 01-.9.3zm24.3 1a1.4 1.4 0 01-1 .2 1.6 1.6 0 01-1-.6 1.3 1.3 0 01-.2-1 1.1 1.1 0 01.6-.8 31.3 31.3 0 008.4-6.9q.1 0 0-.2l-5.8-4.5a1.3 1.3 0 01-.6-.9 1.1 1.1 0 01.3-1 1.4 1.4 0 011-.4 1.4 1.4 0 011 .2l5.7 4.4a.2.2 0 00.3 0 30.3 30.3 0 003.5-7.3 1.5 1.5 0 01.7-.9 1.5 1.5 0 011-.2 1.3 1.3 0 011 .6 1.2 1.2 0 010 1 31.3 31.3 0 01-4 8.6.2.2 0 000 .3q3.4 2.8 5.7 5a1.3 1.3 0 01.4.9 1.3 1.3 0 01-.4 1 1.4 1.4 0 01-1 .4 1.3 1.3 0 01-1-.4q-2.5-2.4-5.3-4.7-.2-.2-.3 0a33 33 0 01-9 7.2zm21.4-8.4a1.3 1.3 0 01-.9-.4 1.3 1.3 0 01-.4-1 1.3 1.3 0 01.4-1 1.3 1.3 0 011-.3h18.2a1.3 1.3 0 011 .4 1.3 1.3 0 01.4 1 1.3 1.3 0 01-.4.9 1.3 1.3 0 01-1 .4zm41.8-8a1.3 1.3 0 01.8.6 1.2 1.2 0 01.2 1q-1.5 7-5.7 10.6t-12 4.4a1.3 1.3 0 01-.9-.3 1.3 1.3 0 01-.5-.9 1.2 1.2 0 01.2-.9 1.1 1.1 0 01.9-.5q7-.8 10.5-3.7t5-9.2a1.4 1.4 0 01.5-.8 1.2 1.2 0 011-.3zm-18 5.4a1.3 1.3 0 01-.9-.5 1.1 1.1 0 01-.2-1 1.3 1.3 0 01.6-.8 1.2 1.2 0 011-.2l5.8 1.1a1.2 1.2 0 01.8.6 1.2 1.2 0 01.2 1 1.2 1.2 0 01-.6.7 1.2 1.2 0 01-1 .2l-5.8-1.1zm7.7-7.6a1.3 1.3 0 01.8.5 1.2 1.2 0 01.2 1 1.2 1.2 0 01-.5.8 1.3 1.3 0 01-1 .1l-6.2-1a1.2 1.2 0 01-.8-.6 1.2 1.2 0 01-.1-1 1.3 1.3 0 01.5-.8 1.2 1.2 0 011-.2l6.1 1.2zm28.2 16a.2.2 0 00.2-.2v-4q0-.2-.2-.2h-10a1 1 0 01-.9-.4 1 1 0 01-.3-.8 1 1 0 01.3-.7 1 1 0 01.8-.4h10q.3 0 .3-.2v-3.1q0-.2-.2-.2h-11.1a1.1 1.1 0 01-.8-.4 1 1 0 01-.4-.8 1 1 0 01.4-.7 1.1 1.1 0 01.8-.4H210a1.4 1.4 0 011 .4 1.4 1.4 0 01.4 1v11.9a1.4 1.4 0 01-.4 1 1.4 1.4 0 01-1 .4h-12.6a1.1 1.1 0 01-.8-.3 1 1 0 01-.4-.8 1.1 1.1 0 01.4-.8 1.1 1.1 0 01.8-.3zm10.4-13.9a1.3 1.3 0 01-.7-.7 1.3 1.3 0 01.1-1 1.3 1.3 0 01.8-.7 1.4 1.4 0 011.1 0q3 1.5 5.5 3a1.3 1.3 0 01.6.8 1.4 1.4 0 01-.1 1 1.3 1.3 0 01-.9.7 1.4 1.4 0 01-1-.1l-5.4-3zm17.6-.3a1.3 1.3 0 01.9.6 1.3 1.3 0 01.2 1q-3 13-17.6 14.9a1.3 1.3 0 01-1-.3 1.3 1.3 0 01-.5-.9 1.2 1.2 0 01.2-1 1.3 1.3 0 01.9-.5 19.7 19.7 0 0010.2-4 16.3 16.3 0 005.2-8.8 1.3 1.3 0 01.6-.8 1.3 1.3 0 011-.2z"/><path fill="red" d="M158.6 160.7a80.3 80.3 0 01-8-.4 79.3 79.3 0 01-8-1.2 79.1 79.1 0 01-61.5-61.6 79.3 79.3 0 01-1.2-7.9 80.3 80.3 0 010-16.2 79.3 79.3 0 011.2-7.8A79.1 79.1 0 01142.7 4a79.3 79.3 0 017.9-1.2 80.3 80.3 0 0116.1 0 79.2 79.2 0 017.9 1.2 79.1 79.1 0 0161.6 61.6 79.4 79.4 0 011.2 7.8 80.3 80.3 0 010 16.2 79.4 79.4 0 01-1.2 7.9 79.1 79.1 0 01-61.6 61.6 79.2 79.2 0 01-7.9 1.2 80.3 80.3 0 01-8 .4zm0-150.7a72.7 72.7 0 00-7.3.4 71.6 71.6 0 00-7 1 71.3 71.3 0 00-55.8 55.7 71.9 71.9 0 00-1 7.1 72.6 72.6 0 000 14.7 71.8 71.8 0 001 7 71.5 71.5 0 0055.7 55.7 71.8 71.8 0 007.1 1.1 72.6 72.6 0 0014.7 0 71.8 71.8 0 007-1 71.6 71.6 0 0056.8-62.8 72.7 72.7 0 000-14.7 72 72 0 00-43.3-58.6 71 71 0 00-13.4-4.2 71.6 71.6 0 00-7.1-1 72.7 72.7 0 00-7.4-.4z"/></g></svg>