
<svg xmlns="http://www.w3.org/2000/svg" viewBox="0 0 148 46"><defs><clipPath id="a"><path d="M0 0h148v46H0z"/></clipPath></defs><g clip-path="url(#a)"><path fill="#0c120c" d="M60.3 18a.9.9 0 01.6.4 1 1 0 01.3.6v8a1 1 0 01-.3.7.9.9 0 01-.6.3.9.9 0 01-.7-.3 1 1 0 01-.2-.6v-1.4h.3a1.4 1.4 0 01-.2.8 3.6 3.6 0 01-.8.8 4.1 4.1 0 01-1 .6 3.6 3.6 0 01-1.4.3 4.2 4.2 0 01-2.3-.7 4.6 4.6 0 01-1.7-1.8 5.6 5.6 0 01-.5-2.6 5.7 5.7 0 01.5-2.6 4.6 4.6 0 011.7-1.8 4 4 0 012.2-.7 4 4 0 011.5.3 4.3 4.3 0 011.2.6 3.5 3.5 0 01.7 1 1.7 1.7 0 01.3.8h-.6V19a1 1 0 01.3-.6.9.9 0 01.7-.3zm-3.8 8.5A2.7 2.7 0 0058 26a3 3 0 001-1.2 3.9 3.9 0 00.4-1.7 3.9 3.9 0 00-.3-1.7 3 3 0 00-1-1.2 2.7 2.7 0 00-1.6-.5 2.7 2.7 0 00-1.5.5 3 3 0 00-1 1.2 3.9 3.9 0 00-.4 1.7 3.9 3.9 0 00.3 1.7 3 3 0 001 1.2 2.7 2.7 0 001.6.5zM68.8 18a3.3 3.3 0 012 .6 2.9 2.9 0 011 1.4 6.8 6.8 0 01.4 2v5a1 1 0 01-.3.7.9.9 0 01-.7.3.9.9 0 01-.6-.3 1 1 0 01-.3-.6v-5a3.6 3.6 0 00-.2-1.2 1.7 1.7 0 00-.6-.9 2.2 2.2 0 00-1.3-.3 2.7 2.7 0 00-1.3.3 2.4 2.4 0 00-1 .9 2.2 2.2 0 00-.3 1.2v5a1 1 0 01-.2.6.9.9 0 01-.7.3.9.9 0 01-.6-.3 1 1 0 01-.3-.6v-8a1 1 0 01.3-.6.9.9 0 01.6-.3.9.9 0 01.7.3 1 1 0 01.2.7v1l-.3.2a2.7 2.7 0 01.5-.8 4.5 4.5 0 01.8-.8 3.9 3.9 0 011-.6 3.5 3.5 0 011.2-.2zm7.7 9a1 1 0 01-.3.7.9.9 0 01-.6.3.9.9 0 01-.7-.3 1 1 0 01-.3-.6v-8a1 1 0 01.3-.7.9.9 0 01.7-.2.9.9 0 01.6.2 1 1 0 01.3.7zm-1-10a1.2 1.2 0 01-.7-.3.8.8 0 01-.3-.6v-.3a.7.7 0 01.3-.7 1.3 1.3 0 01.8-.2 1.3 1.3 0 01.8.2.8.8 0 01.2.7v.3a.8.8 0 01-.2.7 1.4 1.4 0 01-.9.1zm8.4 1a3 3 0 012.1.7 3.3 3.3 0 011 1.9l-.3-.1.1-.3a3.8 3.8 0 01.8-1 4.2 4.2 0 011.1-.8 3.4 3.4 0 011.5-.3 3.2 3.2 0 012 .5 2.8 2.8 0 011 1.5 7 7 0 01.3 2v5a1 1 0 01-.3.6.9.9 0 01-.7.3.9.9 0 01-.6-.3 1 1 0 01-.3-.6v-5a3.8 3.8 0 00-.2-1.1 1.7 1.7 0 00-.6-.9 2 2 0 00-1.2-.3 2.5 2.5 0 00-1.3.3 2.4 2.4 0 00-.9.9 2.3 2.3 0 00-.3 1.2V27a1 1 0 01-.2.6.9.9 0 01-.7.3.9.9 0 01-.7-.3 1 1 0 01-.2-.6v-5A3.8 3.8 0 0085 21a1.7 1.7 0 00-.6-.8 2 2 0 00-1.2-.3 2.6 2.6 0 00-1.3.3 2.2 2.2 0 00-.8.8 2.4 2.4 0 00-.3 1.2v5a1 1 0 01-.3.6.9.9 0 01-.7.3.9.9 0 01-.6-.3 1 1 0 01-.3-.6v-8a1 1 0 01.3-.6.9.9 0 01.6-.3.9.9 0 01.7.3 1 1 0 01.3.7v1l-.4.3a3.1 3.1 0 01.4-.9 3.6 3.6 0 01.8-.7 4.2 4.2 0 011-.6 3.2 3.2 0 011.2-.2zm16.6 10.2a5.4 5.4 0 01-2.6-.7 4.5 4.5 0 01-1.8-1.7 5.2 5.2 0 01-.6-2.6 5.6 5.6 0 01.6-2.8 4.7 4.7 0 011.8-1.8 4.4 4.4 0 012.2-.6 4.2 4.2 0 011.7.4 4.6 4.6 0 011.5 1 4.8 4.8 0 011 1.5 5 5 0 01.4 1.9.8.8 0 01-.3.6 1 1 0 01-.7.2h-7.2l-.4-1.6h7l-.4.4v-.5a2 2 0 00-.4-1.1 2.7 2.7 0 00-1-.8 2.8 2.8 0 00-1.2-.3 3.3 3.3 0 00-1 .2 2.3 2.3 0 00-1 .6 2.9 2.9 0 00-.6 1 4.5 4.5 0 00-.2 1.6 3.6 3.6 0 00.4 1.8 3 3 0 001.1 1.2 3.2 3.2 0 001.6.4 3.8 3.8 0 001.2-.2 2.8 2.8 0 00.7-.3l.5-.4a1.1 1.1 0 01.6-.2.7.7 0 01.5.3.8.8 0 01.3.5 1 1 0 01-.4.8 4.5 4.5 0 01-1.4.8 4.7 4.7 0 01-1.9.4zm5.6-1.7a1 1 0 01-.1-.6.7.7 0 01.4-.6.8.8 0 01.5-.1.9.9 0 01.5.2 4.1 4.1 0 001.2 1 3.3 3.3 0 001.6.3 3.7 3.7 0 00.7-.1 1.5 1.5 0 00.7-.4 1 1 0 00.3-.8 1 1 0 00-.3-.7 2.3 2.3 0 00-.8-.5l-1-.3-1.2-.4a4.5 4.5 0 01-1.1-.5 2.6 2.6 0 01-.8-.9 2.5 2.5 0 01-.3-1.2 2.4 2.4 0 01.5-1.5 3.3 3.3 0 011.2-1 4.2 4.2 0 011.8-.4 5 5 0 011 .2 4.7 4.7 0 011.2.4 3.3 3.3 0 011 .8 1 1 0 01.2.6.7.7 0 01-.3.5.7.7 0 01-.5.2.8.8 0 01-.5-.2 2.4 2.4 0 00-1-.7 3 3 0 00-1.2-.2 2.8 2.8 0 00-.7 0 1.4 1.4 0 00-.7.4 1 1 0 00-.2.8 1 1 0 00.3.7 2.5 2.5 0 00.8.5 10.5 10.5 0 001 .3l1.2.4a4.2 4.2 0 011 .5 2.5 2.5 0 01.8.8 2.6 2.6 0 01.3 1.3 2.4 2.4 0 01-.6 1.6 3.4 3.4 0 01-1.3 1 4.4 4.4 0 01-1.7.3 6.1 6.1 0 01-2.1-.4 3.9 3.9 0 01-1.8-1.3zm14.4-8.4a3.2 3.2 0 012 .5 2.9 2.9 0 011 1.5 6.9 6.9 0 01.3 2v5a1 1 0 01-.3.6.9.9 0 01-.7.3.9.9 0 01-.6-.3 1 1 0 01-.3-.6v-5a3.8 3.8 0 00-.2-1.2 1.7 1.7 0 00-.6-.8 2 2 0 00-1.2-.3 2.6 2.6 0 00-1.3.3 2.2 2.2 0 00-.9.8 2.4 2.4 0 00-.3 1.2v5a1 1 0 01-.2.6.9.9 0 01-.7.3.9.9 0 01-.7-.3 1 1 0 01-.2-.6V15.2a1 1 0 01.2-.7.9.9 0 01.7-.2.9.9 0 01.7.2 1 1 0 01.2.7v5l-.3.3a3 3 0 01.4-.9 3.8 3.8 0 01.8-.8 4 4 0 011-.5 3.3 3.3 0 011.2-.2zm15.1 5a5.2 5.2 0 01-.6 2.6 4.8 4.8 0 01-1.8 1.8 4.9 4.9 0 01-2.5.7 4.9 4.9 0 01-2.5-.7 4.8 4.8 0 01-1.8-1.8 5.2 5.2 0 01-.7-2.6 5.2 5.2 0 01.7-2.6 4.9 4.9 0 011.8-1.8 4.8 4.8 0 012.5-.7 4.8 4.8 0 012.5.7 4.9 4.9 0 011.8 1.8 5.2 5.2 0 01.6 2.6zm-1.8 0a3.7 3.7 0 00-.4-1.8 3.1 3.1 0 00-1.1-1.1 2.9 2.9 0 00-1.6-.5 2.9 2.9 0 00-1.6.5 3.2 3.2 0 00-1 1.1 3.6 3.6 0 00-.5 1.8 3.6 3.6 0 00.4 1.8 3.1 3.1 0 001.1 1.2 3 3 0 001.6.4 3 3 0 001.6-.4 3 3 0 001-1.2 3.6 3.6 0 00.5-1.8zm8.9-5a3.3 3.3 0 012 .5 2.9 2.9 0 011 1.4 6.8 6.8 0 01.3 2v5a1 1 0 01-.3.7.9.9 0 01-.6.3.9.9 0 01-.7-.3 1 1 0 01-.3-.6v-5a3.6 3.6 0 00-.1-1.2 1.7 1.7 0 00-.7-.9 2.2 2.2 0 00-1.3-.3 2.7 2.7 0 00-1.3.3 2.4 2.4 0 00-.9.9 2.2 2.2 0 00-.3 1.2v5a1 1 0 01-.3.6.9.9 0 01-.6.3.9.9 0 01-.7-.3 1 1 0 01-.3-.6v-8a1 1 0 01.3-.6.9.9 0 01.7-.3.9.9 0 01.6.3 1 1 0 01.3.7v1l-.4.2a2.7 2.7 0 01.5-.8 4.5 4.5 0 01.8-.8 3.9 3.9 0 011-.6 3.5 3.5 0 011.3-.2z"/><path fill="#777" d="M95.6 33.7a.4.4 0 01-.3-.1.4.4 0 010-.3.4.4 0 010-.3.4.4 0 01.3 0h5.8a.4.4 0 01.2 0 .4.4 0 01.1.3 2.3 2.3 0 010 .8 4.6 4.6 0 01-1.8 2.2.4.4 0 01-.4 0 .4.4 0 01-.2-.1.4.4 0 010-.4.4.4 0 01.1-.2 3.4 3.4 0 001.4-1.8v-.1zm1.9 1.2a.5.5 0 01.1-.3.4.4 0 01.3-.2.4.4 0 01.3.2.4.4 0 01.1.3 7.5 7.5 0 01-.4 2.8 3.2 3.2 0 01-1.5 1.5.4.4 0 01-.3 0 .4.4 0 01-.2-.2.4.4 0 010-.3.4.4 0 01.1-.2 2.6 2.6 0 001.1-1.3 6.7 6.7 0 00.4-2.3zm5.9-1.9h4.6a.4.4 0 01.2.2.4.4 0 01.2.3.4.4 0 01-.2.3.4.4 0 01-.2.1h-4.6a.4.4 0 01-.3-.1.4.4 0 01-.1-.3.4.4 0 01.1-.3.4.4 0 01.3-.2zm-.6 6a.4.4 0 01-.3-.2.4.4 0 010-.3.4.4 0 010-.3.4.4 0 01.3-.1h5.7a.4.4 0 01.3 0 .4.4 0 01.1.4.4.4 0 010 .3.4.4 0 01-.4.1zm7.8.3a.4.4 0 01-.4 0 .5.5 0 01-.3-.2.4.4 0 010-.3.4.4 0 01.2-.3 10.1 10.1 0 002.7-2.3l-2-1.6a.4.4 0 010-.3.4.4 0 010-.3.4.4 0 01.3-.1.4.4 0 01.4 0l1.8 1.5a10.3 10.3 0 001.2-2.4.5.5 0 01.2-.3.5.5 0 01.4 0 .4.4 0 01.2.1.4.4 0 010 .4 10.7 10.7 0 01-1.2 2.8v.1l1.8 1.7a.4.4 0 01.1.3.4.4 0 01-.1.3.4.4 0 01-.3.1.4.4 0 01-.3 0l-1.7-1.7h-.1a10.6 10.6 0 01-3 2.5zm6.8-2.9a.4.4 0 01-.3-.1.4.4 0 010-.3.4.4 0 010-.3.4.4 0 01.3-.2h5.9a.4.4 0 01.3.2.4.4 0 01.1.3.4.4 0 01-.1.3.4.4 0 01-.3.1zm13.4-2.6a.4.4 0 01.2.2.4.4 0 010 .3 6.3 6.3 0 01-1.7 3.5 6.8 6.8 0 01-3.8 1.5.4.4 0 01-.3 0 .4.4 0 01-.2-.4.4.4 0 010-.3.4.4 0 01.3-.1 6.2 6.2 0 003.4-1.3 5.4 5.4 0 001.6-3 .5.5 0 01.1-.3.4.4 0 01.4-.1zm-5.8 1.8a.4.4 0 01-.3-.2.4.4 0 010-.3.4.4 0 01.1-.3.4.4 0 01.4 0l1.8.3a.4.4 0 01.3.2.4.4 0 010 .3.4.4 0 01-.1.3.4.4 0 01-.3 0l-1.9-.3zm2.5-2.6a.4.4 0 01.2.2.4.4 0 01.1.3.4.4 0 01-.2.3.4.4 0 01-.3 0l-2-.3a.4.4 0 01-.2-.2.4.4 0 010-.3.4.4 0 01.1-.3.4.4 0 01.3 0l2 .3zm9 5.4V37v-.1h-3.2a.3.3 0 01-.3-.1.4.4 0 010-.3.4.4 0 010-.2.3.3 0 01.3-.1h3.2V35 35h-3.6a.4.4 0 01-.2-.1.4.4 0 01-.1-.3.4.4 0 010-.3.4.4 0 01.3 0h4a.4.4 0 01.4 0 .5.5 0 01.1.4v4a.5.5 0 01-.1.3.4.4 0 01-.3.1h-4a.4.4 0 01-.3 0 .4.4 0 01-.1-.3.4.4 0 010-.3.3.3 0 01.3-.1zm3.3-4.6a.4.4 0 01-.2-.3.5.5 0 010-.4.4.4 0 01.3-.2.4.4 0 01.3 0l1.8 1a.4.4 0 01.2.3.5.5 0 010 .4.4.4 0 01-.3.2.4.4 0 01-.4 0q-.8-.6-1.7-1zm5.6-.2a.4.4 0 01.3.2.4.4 0 010 .4q-.9 4.3-5.5 5a.4.4 0 01-.4-.1.5.5 0 01-.1-.3.4.4 0 010-.4.4.4 0 01.3-.1 6.1 6.1 0 003.3-1.4 5.5 5.5 0 001.6-3 .4.4 0 01.2-.2.4.4 0 01.3 0z"/><path fill="#ef0c40" d="M9.7 19.4a1.6 1.6 0 01.7.3.6.6 0 01.2.5 1.8 1.8 0 010 .4 7.6 7.6 0 00-.3 1.6 4.4 4.4 0 00.3 1.7 1.5 1.5 0 00.2.4.3.3 0 00.2.2q.2 0 .5-.4a6.1 6.1 0 001-1.6A5.6 5.6 0 0013 21a1.5 1.5 0 01.2-.7.4.4 0 01.2-.1 4.6 4.6 0 01.5 0 4 4 0 01.7 0 .4.4 0 01.3.2.9.9 0 010 .4V22.4l-.1 2.4a5.2 5.2 0 01-.4 1.6.7.7 0 01-.2.2.8.8 0 01-.3.1l-.1-.1a1.2 1.2 0 01-.2-.2l-.3-.8-.1-.3V25l-.1.1-.3.2a2 2 0 01-.5.3 1.9 1.9 0 01-1 .2 2.6 2.6 0 01-1.4-.4 3 3 0 01-1-1.1 5 5 0 01-.6-2.5 10.7 10.7 0 01.2-1.9.7.7 0 01.3-.4 1 1 0 01.7-.2 1.5 1.5 0 01.3 0zM23 25l-.4-.5-.9 2a1.2 1.2 0 01-1 .7 1.9 1.9 0 01-.8-.2 3 3 0 01-1.2-1 5 5 0 01-.6-1.5l-.7-2.5a1.5 1.5 0 010-.3.8.8 0 01.4-.7 1.2 1.2 0 01.5-.1 1.2 1.2 0 01.6.1 1.9 1.9 0 01.7.6 1.7 1.7 0 01.3.9 4.8 4.8 0 00.2 1.1 3.6 3.6 0 00.3.8l.2-.2a1.5 1.5 0 00.2-.3l.4-.7a10.3 10.3 0 01.7-1.3 1.5 1.5 0 01.5-.5 1.3 1.3 0 01.6-.2 1.5 1.5 0 011.1.5 1.8 1.8 0 01.3.7l.1.7a7.5 7.5 0 00.3 1.3q.1.3.4.3a.5.5 0 00.4-.3l1-1.8a11.7 11.7 0 01.6-1.3 9.7 9.7 0 011-1.3 1.5 1.5 0 01.5-.4 1.1 1.1 0 01.5-.1q.2 0 .3.3a2 2 0 01.1.7 2.5 2.5 0 010 .4 4.3 4.3 0 01-.2.8l-.5 1-.4.9-.2.3-1 1.5a5.9 5.9 0 01-1.2 1 1 1 0 01-.6.3 1.2 1.2 0 01-.5-.1 3.2 3.2 0 01-.4-.3l-.4-.2a4.5 4.5 0 01-1-.8 2.6 2.6 0 00-.2-.3zm11.9.3a5 5 0 00.6-2.6l-.1-1.3v-2q0-.5.4-.5a.8.8 0 01.3 0q1 .5 1 1a10 10 0 01.5 2.8 8.1 8.1 0 01-.6 3 2.3 2.3 0 01-1 1.2 2.8 2.8 0 01-1.3.4 3 3 0 01-1.7-.5 3.1 3.1 0 01-1.5-2.3l-.2-1.1-.2-1.7a.8.8 0 01.3-.7 1.1 1.1 0 01.7-.2 1 1 0 01.4 0 1.6 1.6 0 01.9.7 2.2 2.2 0 01.2 1.2v.9a3.2 3.2 0 00.4 1.7 1 1 0 00.2.3h.2a.6.6 0 00.2 0 1 1 0 00.3-.3z"/><path fill="#ef0c40" d="M23 45a22.3 22.3 0 01-2.3-.1 22 22 0 01-2.1-.3A21.8 21.8 0 012 29.6l-.6-2.2a22 22 0 01-.3-2.1 22.3 22.3 0 010-4.6 22 22 0 01.3-2.1A21.8 21.8 0 0118.6 1.4a22 22 0 012.1-.3 22.3 22.3 0 014.5 0 22 22 0 012.2.3 21.8 21.8 0 0117.1 17.2 22 22 0 01.4 2.1 22.3 22.3 0 010 4.6 22 22 0 01-.4 2.1 22 22 0 01-17 17.2 22 22 0 01-2.3.3 22.3 22.3 0 01-2.2.1zm0-41.9a20.2 20.2 0 00-2 .1 19.9 19.9 0 00-2 .3 21 21 0 00-7.1 3 21 21 0 00-6.4 7 19 19 0 00-2 5.5 20 20 0 00-.3 2 20.2 20.2 0 000 4 20 20 0 00.3 2 21 21 0 003 7.1 21 21 0 007 6.4 18.8 18.8 0 005.5 2 20 20 0 002 .3 20.2 20.2 0 004 0 20 20 0 002-.3 21 21 0 007.1-3 20.9 20.9 0 006.4-7 18.8 18.8 0 002.3-7.5 20.2 20.2 0 000-4 20.5 20.5 0 00-3.3-9.1 21 21 0 00-7-6.4 18.8 18.8 0 00-5.5-2 19.9 19.9 0 00-2-.3 20.2 20.2 0 00-2 0z"/></g></svg>